<mxfile host="Electron" modified="2024-08-07T18:45:02.466Z" agent="Mozilla/5.0 (Windows NT 10.0; Win64; x64) AppleWebKit/537.36 (KHTML, like Gecko) draw.io/24.6.4 Chrome/124.0.6367.207 Electron/30.0.6 Safari/537.36" etag="DanYnN2Fo09ryMqbjHWX" version="24.6.4" type="device">
  <diagram id="IeJW0ZlFqhKMoChA2KOu" name="Page-1">
    <mxGraphModel dx="664" dy="596" grid="0" gridSize="10" guides="1" tooltips="1" connect="1" arrows="1" fold="1" page="1" pageScale="1" pageWidth="850" pageHeight="1100" math="0" shadow="0">
      <root>
        <mxCell id="0" />
        <mxCell id="1" parent="0" />
        <mxCell id="Uhq5YBoEHpC8XfGF-FOm-1" value="&lt;h1 style=&quot;margin-top: 0px;&quot;&gt;Player placement DFD&lt;/h1&gt;" style="text;html=1;whiteSpace=wrap;overflow=hidden;rounded=0;" parent="1" vertex="1">
          <mxGeometry x="53" y="155" width="360" height="50" as="geometry" />
        </mxCell>
        <mxCell id="0Y-vKRixQphdZRt5s6qf-22" style="edgeStyle=orthogonalEdgeStyle;rounded=0;orthogonalLoop=1;jettySize=auto;html=1;" edge="1" parent="1" source="Uhq5YBoEHpC8XfGF-FOm-15" target="0Y-vKRixQphdZRt5s6qf-3">
          <mxGeometry relative="1" as="geometry" />
        </mxCell>
        <mxCell id="Uhq5YBoEHpC8XfGF-FOm-15" value="PickleballGame" style="rounded=0;whiteSpace=wrap;html=1;" parent="1" vertex="1">
          <mxGeometry x="56" y="230" width="120" height="60" as="geometry" />
        </mxCell>
        <mxCell id="0Y-vKRixQphdZRt5s6qf-28" style="edgeStyle=orthogonalEdgeStyle;rounded=0;orthogonalLoop=1;jettySize=auto;html=1;" edge="1" parent="1" source="0Y-vKRixQphdZRt5s6qf-1" target="0Y-vKRixQphdZRt5s6qf-27">
          <mxGeometry relative="1" as="geometry">
            <Array as="points">
              <mxPoint x="116" y="620" />
            </Array>
          </mxGeometry>
        </mxCell>
        <mxCell id="0Y-vKRixQphdZRt5s6qf-1" value="Match(s)" style="rounded=0;whiteSpace=wrap;html=1;" vertex="1" parent="1">
          <mxGeometry x="56" y="520" width="120" height="60" as="geometry" />
        </mxCell>
        <mxCell id="0Y-vKRixQphdZRt5s6qf-25" style="edgeStyle=orthogonalEdgeStyle;rounded=0;orthogonalLoop=1;jettySize=auto;html=1;" edge="1" parent="1" source="0Y-vKRixQphdZRt5s6qf-3" target="0Y-vKRixQphdZRt5s6qf-30">
          <mxGeometry relative="1" as="geometry">
            <Array as="points">
              <mxPoint x="267" y="370" />
              <mxPoint x="116" y="370" />
            </Array>
          </mxGeometry>
        </mxCell>
        <mxCell id="0Y-vKRixQphdZRt5s6qf-3" value="provide buy round participants" style="ellipse;whiteSpace=wrap;html=1;aspect=fixed;" vertex="1" parent="1">
          <mxGeometry x="255" y="220" width="80" height="80" as="geometry" />
        </mxCell>
        <mxCell id="0Y-vKRixQphdZRt5s6qf-7" value="" style="group" vertex="1" connectable="0" parent="1">
          <mxGeometry x="424" y="472.5" width="277" height="41" as="geometry" />
        </mxCell>
        <mxCell id="0Y-vKRixQphdZRt5s6qf-4" value="participants" style="rounded=1;whiteSpace=wrap;html=1;" vertex="1" parent="0Y-vKRixQphdZRt5s6qf-7">
          <mxGeometry width="277" height="41" as="geometry" />
        </mxCell>
        <mxCell id="0Y-vKRixQphdZRt5s6qf-6" value="" style="shape=link;html=1;rounded=0;entryX=0.172;entryY=0.003;entryDx=0;entryDy=0;entryPerimeter=0;exitX=0.17;exitY=1.002;exitDx=0;exitDy=0;exitPerimeter=0;" edge="1" parent="0Y-vKRixQphdZRt5s6qf-7" source="0Y-vKRixQphdZRt5s6qf-4" target="0Y-vKRixQphdZRt5s6qf-4">
          <mxGeometry width="100" relative="1" as="geometry">
            <mxPoint x="45" y="38" as="sourcePoint" />
            <mxPoint x="391" y="107" as="targetPoint" />
          </mxGeometry>
        </mxCell>
        <mxCell id="0Y-vKRixQphdZRt5s6qf-9" value="" style="group" vertex="1" connectable="0" parent="1">
          <mxGeometry x="421" y="329" width="277" height="41" as="geometry" />
        </mxCell>
        <mxCell id="0Y-vKRixQphdZRt5s6qf-10" value="participantsInBuyRound" style="rounded=1;whiteSpace=wrap;html=1;" vertex="1" parent="0Y-vKRixQphdZRt5s6qf-9">
          <mxGeometry width="277" height="41" as="geometry" />
        </mxCell>
        <mxCell id="0Y-vKRixQphdZRt5s6qf-11" value="" style="shape=link;html=1;rounded=0;entryX=0.172;entryY=0.003;entryDx=0;entryDy=0;entryPerimeter=0;exitX=0.17;exitY=1.002;exitDx=0;exitDy=0;exitPerimeter=0;" edge="1" parent="0Y-vKRixQphdZRt5s6qf-9" source="0Y-vKRixQphdZRt5s6qf-10" target="0Y-vKRixQphdZRt5s6qf-10">
          <mxGeometry width="100" relative="1" as="geometry">
            <mxPoint x="45" y="38" as="sourcePoint" />
            <mxPoint x="391" y="107" as="targetPoint" />
          </mxGeometry>
        </mxCell>
        <mxCell id="0Y-vKRixQphdZRt5s6qf-24" style="edgeStyle=orthogonalEdgeStyle;rounded=0;orthogonalLoop=1;jettySize=auto;html=1;" edge="1" parent="1" source="0Y-vKRixQphdZRt5s6qf-18" target="0Y-vKRixQphdZRt5s6qf-30">
          <mxGeometry relative="1" as="geometry" />
        </mxCell>
        <mxCell id="0Y-vKRixQphdZRt5s6qf-18" value="provide&amp;nbsp;xOR" style="ellipse;whiteSpace=wrap;html=1;aspect=fixed;" vertex="1" parent="1">
          <mxGeometry x="300" y="400" width="80" height="80" as="geometry" />
        </mxCell>
        <mxCell id="0Y-vKRixQphdZRt5s6qf-19" style="edgeStyle=orthogonalEdgeStyle;rounded=0;orthogonalLoop=1;jettySize=auto;html=1;" edge="1" parent="1" source="0Y-vKRixQphdZRt5s6qf-10" target="0Y-vKRixQphdZRt5s6qf-3">
          <mxGeometry relative="1" as="geometry">
            <Array as="points">
              <mxPoint x="365" y="350" />
              <mxPoint x="365" y="261" />
            </Array>
          </mxGeometry>
        </mxCell>
        <mxCell id="0Y-vKRixQphdZRt5s6qf-21" style="edgeStyle=orthogonalEdgeStyle;rounded=0;orthogonalLoop=1;jettySize=auto;html=1;" edge="1" parent="1" source="0Y-vKRixQphdZRt5s6qf-4" target="0Y-vKRixQphdZRt5s6qf-18">
          <mxGeometry relative="1" as="geometry" />
        </mxCell>
        <mxCell id="0Y-vKRixQphdZRt5s6qf-26" style="edgeStyle=orthogonalEdgeStyle;rounded=0;orthogonalLoop=1;jettySize=auto;html=1;" edge="1" parent="1" source="0Y-vKRixQphdZRt5s6qf-10" target="0Y-vKRixQphdZRt5s6qf-18">
          <mxGeometry relative="1" as="geometry">
            <Array as="points">
              <mxPoint x="561" y="383" />
              <mxPoint x="357" y="383" />
              <mxPoint x="357" y="437" />
            </Array>
          </mxGeometry>
        </mxCell>
        <mxCell id="0Y-vKRixQphdZRt5s6qf-29" style="edgeStyle=orthogonalEdgeStyle;rounded=0;orthogonalLoop=1;jettySize=auto;html=1;" edge="1" parent="1" source="0Y-vKRixQphdZRt5s6qf-27" target="0Y-vKRixQphdZRt5s6qf-10">
          <mxGeometry relative="1" as="geometry">
            <Array as="points">
              <mxPoint x="735" y="620" />
              <mxPoint x="735" y="350" />
            </Array>
          </mxGeometry>
        </mxCell>
        <mxCell id="0Y-vKRixQphdZRt5s6qf-27" value="overwrite w/ court overflow" style="ellipse;whiteSpace=wrap;html=1;aspect=fixed;" vertex="1" parent="1">
          <mxGeometry x="345" y="580" width="80" height="80" as="geometry" />
        </mxCell>
        <mxCell id="0Y-vKRixQphdZRt5s6qf-31" style="edgeStyle=orthogonalEdgeStyle;rounded=0;orthogonalLoop=1;jettySize=auto;html=1;" edge="1" parent="1" source="0Y-vKRixQphdZRt5s6qf-30" target="0Y-vKRixQphdZRt5s6qf-1">
          <mxGeometry relative="1" as="geometry" />
        </mxCell>
        <mxCell id="0Y-vKRixQphdZRt5s6qf-30" value="placment algorithm" style="ellipse;whiteSpace=wrap;html=1;aspect=fixed;" vertex="1" parent="1">
          <mxGeometry x="76" y="400" width="80" height="80" as="geometry" />
        </mxCell>
        <mxCell id="0Y-vKRixQphdZRt5s6qf-34" style="rounded=0;orthogonalLoop=1;jettySize=auto;html=1;endArrow=none;endFill=0;dashed=1;" edge="1" parent="1" source="0Y-vKRixQphdZRt5s6qf-33" target="0Y-vKRixQphdZRt5s6qf-18">
          <mxGeometry relative="1" as="geometry" />
        </mxCell>
        <mxCell id="0Y-vKRixQphdZRt5s6qf-33" value="&lt;font style=&quot;font-size: 8px;&quot;&gt;hashmap participants count + sort by counting&lt;/font&gt;&lt;div&gt;&lt;font style=&quot;font-size: 8px;&quot;&gt;&amp;gt;&lt;br&gt;binary convertion of&amp;nbsp;&lt;span style=&quot;background-color: initial;&quot;&gt;participants and indirect compare&lt;/span&gt;&lt;br&gt;&lt;/font&gt;&lt;/div&gt;&lt;div&gt;&lt;font style=&quot;font-size: 8px;&quot;&gt;&lt;span style=&quot;background-color: initial;&quot;&gt;&amp;gt;&lt;/span&gt;&lt;/font&gt;&lt;/div&gt;&lt;div&gt;&lt;font style=&quot;font-size: 8px;&quot;&gt;&lt;span style=&quot;background-color: initial;&quot;&gt;direct compare&lt;/span&gt;&lt;/font&gt;&lt;/div&gt;" style="text;html=1;align=center;verticalAlign=middle;whiteSpace=wrap;rounded=0;" vertex="1" parent="1">
          <mxGeometry x="180" y="686" width="99" height="121" as="geometry" />
        </mxCell>
      </root>
    </mxGraphModel>
  </diagram>
</mxfile>
